<svg width="112" height="111" viewBox="0 0 112 111" fill="none" xmlns="http://www.w3.org/2000/svg">
<path d="M44.3645 0.749218L1.62078 35.211L1.64094 35.2984H1.63789L0.301956 64.3696L31.1635 83.7173L53.5766 110.345L68.5625 108.332L94.2987 82.6476L111.355 74.3383L111.578 57.8758L111.856 46.038L72.8164 19.5227L64.9859 22.9117L64.175 29.8858L59.8236 29.3795L60.5759 22.9112L49.5758 21.103L44.6291 27.8634L41.0942 25.2766L47.6302 16.3445L62.9286 18.8594L62.8981 19.0422L68.8044 16.4856L56.7376 1.48281L44.3645 0.749218ZM5.5168 46.3014L33.152 63.6756L44.6516 61.4022L41.3375 58.1889L44.3867 55.0436L53.7031 64.0776L36.8417 67.4111L32.4078 79.3277L4.79446 62.0167L5.5168 46.3014ZM90.5373 60.1455L100.939 64.9619L107.142 61.9338L107.01 71.5818L95.2229 77.3249L97.4705 68.1824L88.6969 64.1202L90.5368 60.1452L90.5373 60.1455ZM40.959 68.9048L59.2656 90.7016L53.4507 103.395L35.7777 82.3973L35.9188 82.45L40.959 68.9048ZM92.1472 71.4895L89.8278 80.9207L68.8067 101.9L73.2814 90.3674L92.1472 71.4895ZM68.1723 91.4263L63.0385 104.654L57.3404 105.42L63.4618 92.0584L68.1727 91.4263H68.1723Z" fill="black"/>
</svg>
